<mxfile host="app.diagrams.net" modified="2024-02-14T20:36:11.197Z" agent="Mozilla/5.0 (Windows NT 10.0; Win64; x64) AppleWebKit/537.36 (KHTML, like Gecko) Chrome/121.0.0.0 Safari/537.36" etag="XYNXIZBbYY6ITdGxSeGi" version="23.1.4" type="github">
  <diagram name="PÃ¡gina-1" id="4LGEyRPNAvTtnEifTHat">
    <mxGraphModel dx="2506" dy="2047" grid="1" gridSize="10" guides="1" tooltips="1" connect="1" arrows="1" fold="1" page="1" pageScale="1" pageWidth="827" pageHeight="1169" math="0" shadow="0">
      <root>
        <mxCell id="0" />
        <mxCell id="1" parent="0" />
        <mxCell id="2" value="Azure AI Platform" style="whiteSpace=wrap;strokeWidth=2;" parent="1" vertex="1">
          <mxGeometry x="-490" y="582" width="138" height="34" as="geometry" />
        </mxCell>
        <mxCell id="8FiEF_ac_Us0IcNXSMMW-44" style="edgeStyle=orthogonalEdgeStyle;rounded=0;orthogonalLoop=1;jettySize=auto;html=1;exitX=0.5;exitY=1;exitDx=0;exitDy=0;entryX=0;entryY=0.5;entryDx=0;entryDy=0;curved=1;" edge="1" parent="1" source="3" target="5">
          <mxGeometry relative="1" as="geometry" />
        </mxCell>
        <mxCell id="8FiEF_ac_Us0IcNXSMMW-45" style="edgeStyle=orthogonalEdgeStyle;rounded=0;orthogonalLoop=1;jettySize=auto;html=1;entryX=0;entryY=0.5;entryDx=0;entryDy=0;exitX=0.5;exitY=1;exitDx=0;exitDy=0;curved=1;" edge="1" parent="1" source="3" target="8FiEF_ac_Us0IcNXSMMW-40">
          <mxGeometry relative="1" as="geometry" />
        </mxCell>
        <mxCell id="8FiEF_ac_Us0IcNXSMMW-46" style="edgeStyle=orthogonalEdgeStyle;rounded=0;orthogonalLoop=1;jettySize=auto;html=1;entryX=0;entryY=0.5;entryDx=0;entryDy=0;exitX=0.5;exitY=1;exitDx=0;exitDy=0;curved=1;" edge="1" parent="1" source="3" target="8FiEF_ac_Us0IcNXSMMW-39">
          <mxGeometry relative="1" as="geometry" />
        </mxCell>
        <mxCell id="8FiEF_ac_Us0IcNXSMMW-47" style="edgeStyle=orthogonalEdgeStyle;rounded=0;orthogonalLoop=1;jettySize=auto;html=1;entryX=0;entryY=0.5;entryDx=0;entryDy=0;exitX=0.5;exitY=1;exitDx=0;exitDy=0;curved=1;" edge="1" parent="1" source="3" target="8FiEF_ac_Us0IcNXSMMW-38">
          <mxGeometry relative="1" as="geometry" />
        </mxCell>
        <mxCell id="8FiEF_ac_Us0IcNXSMMW-48" style="edgeStyle=orthogonalEdgeStyle;rounded=0;orthogonalLoop=1;jettySize=auto;html=1;entryX=0;entryY=0.5;entryDx=0;entryDy=0;exitX=0.5;exitY=1;exitDx=0;exitDy=0;curved=1;" edge="1" parent="1" source="3" target="8FiEF_ac_Us0IcNXSMMW-37">
          <mxGeometry relative="1" as="geometry" />
        </mxCell>
        <mxCell id="8FiEF_ac_Us0IcNXSMMW-49" style="edgeStyle=orthogonalEdgeStyle;rounded=0;orthogonalLoop=1;jettySize=auto;html=1;entryX=0;entryY=0.5;entryDx=0;entryDy=0;exitX=0.5;exitY=1;exitDx=0;exitDy=0;curved=1;" edge="1" parent="1" source="3" target="8FiEF_ac_Us0IcNXSMMW-35">
          <mxGeometry relative="1" as="geometry" />
        </mxCell>
        <mxCell id="8FiEF_ac_Us0IcNXSMMW-51" style="edgeStyle=orthogonalEdgeStyle;rounded=0;orthogonalLoop=1;jettySize=auto;html=1;entryX=0;entryY=0.5;entryDx=0;entryDy=0;curved=1;" edge="1" parent="1" source="3" target="8FiEF_ac_Us0IcNXSMMW-43">
          <mxGeometry relative="1" as="geometry" />
        </mxCell>
        <mxCell id="8FiEF_ac_Us0IcNXSMMW-52" style="edgeStyle=orthogonalEdgeStyle;rounded=0;orthogonalLoop=1;jettySize=auto;html=1;entryX=0;entryY=0.5;entryDx=0;entryDy=0;curved=1;exitX=0.5;exitY=0;exitDx=0;exitDy=0;" edge="1" parent="1" source="3" target="8FiEF_ac_Us0IcNXSMMW-42">
          <mxGeometry relative="1" as="geometry" />
        </mxCell>
        <mxCell id="8FiEF_ac_Us0IcNXSMMW-53" style="edgeStyle=orthogonalEdgeStyle;rounded=0;orthogonalLoop=1;jettySize=auto;html=1;entryX=0;entryY=0.5;entryDx=0;entryDy=0;exitX=0.5;exitY=0;exitDx=0;exitDy=0;curved=1;" edge="1" parent="1" source="3" target="8FiEF_ac_Us0IcNXSMMW-41">
          <mxGeometry relative="1" as="geometry" />
        </mxCell>
        <mxCell id="8FiEF_ac_Us0IcNXSMMW-54" style="edgeStyle=orthogonalEdgeStyle;rounded=0;orthogonalLoop=1;jettySize=auto;html=1;entryX=0;entryY=0.5;entryDx=0;entryDy=0;exitX=0.5;exitY=0;exitDx=0;exitDy=0;curved=1;" edge="1" parent="1" source="3" target="9">
          <mxGeometry relative="1" as="geometry" />
        </mxCell>
        <mxCell id="8FiEF_ac_Us0IcNXSMMW-55" style="edgeStyle=orthogonalEdgeStyle;rounded=0;orthogonalLoop=1;jettySize=auto;html=1;entryX=0;entryY=0.5;entryDx=0;entryDy=0;exitX=0.5;exitY=0;exitDx=0;exitDy=0;curved=1;" edge="1" parent="1" source="3" target="8">
          <mxGeometry relative="1" as="geometry" />
        </mxCell>
        <mxCell id="8FiEF_ac_Us0IcNXSMMW-56" style="edgeStyle=orthogonalEdgeStyle;rounded=0;orthogonalLoop=1;jettySize=auto;html=1;entryX=0;entryY=0.5;entryDx=0;entryDy=0;exitX=0.5;exitY=0;exitDx=0;exitDy=0;curved=1;" edge="1" parent="1" source="3" target="7">
          <mxGeometry relative="1" as="geometry" />
        </mxCell>
        <mxCell id="3" value="AI Services" style="whiteSpace=wrap;strokeWidth=2;" parent="1" vertex="1">
          <mxGeometry x="-302" y="124" width="145" height="34" as="geometry" />
        </mxCell>
        <mxCell id="4" value="Machine Learning" style="whiteSpace=wrap;strokeWidth=2;" parent="1" vertex="1">
          <mxGeometry x="-241" y="802" width="141" height="34" as="geometry" />
        </mxCell>
        <mxCell id="5" value="Bot Services" style="whiteSpace=wrap;strokeWidth=2;" parent="1" vertex="1">
          <mxGeometry x="-32.55" y="203" width="102" height="34" as="geometry" />
        </mxCell>
        <mxCell id="6" value="Databricks and Spark" style="whiteSpace=wrap;strokeWidth=2;" parent="1" vertex="1">
          <mxGeometry x="-252" y="964" width="143" height="34" as="geometry" />
        </mxCell>
        <mxCell id="7" value="Azure OpenAI" style="whiteSpace=wrap;strokeWidth=2;" parent="1" vertex="1">
          <mxGeometry x="-48.05" y="-210" width="133" height="34" as="geometry" />
        </mxCell>
        <mxCell id="8" value="Language" style="whiteSpace=wrap;strokeWidth=2;" parent="1" vertex="1">
          <mxGeometry x="-51.55" y="-151" width="140" height="34" as="geometry" />
        </mxCell>
        <mxCell id="9" value="Translator" style="whiteSpace=wrap;strokeWidth=2;" parent="1" vertex="1">
          <mxGeometry x="-51.55" y="-92" width="140" height="34" as="geometry" />
        </mxCell>
        <mxCell id="10" value="Speech" style="whiteSpace=wrap;strokeWidth=2;" parent="1" vertex="1">
          <mxGeometry x="-14.549999999999997" y="144" width="66" height="34" as="geometry" />
        </mxCell>
        <mxCell id="11" value="Azure Machine Learning" style="whiteSpace=wrap;strokeWidth=2;" parent="1" vertex="1">
          <mxGeometry x="-24" y="760" width="186" height="34" as="geometry" />
        </mxCell>
        <mxCell id="12" value="On-premises Machine Learning" style="whiteSpace=wrap;strokeWidth=2;" parent="1" vertex="1">
          <mxGeometry x="-47" y="844" width="233" height="34" as="geometry" />
        </mxCell>
        <mxCell id="15" value="Azure Cognitive Search" style="whiteSpace=wrap;strokeWidth=2;" parent="1" vertex="1">
          <mxGeometry x="-31" y="922" width="181" height="34" as="geometry" />
        </mxCell>
        <mxCell id="16" value="QnA Maker" style="whiteSpace=wrap;strokeWidth=2;" parent="1" vertex="1">
          <mxGeometry x="13" y="1006" width="91" height="34" as="geometry" />
        </mxCell>
        <mxCell id="17" value="" style="curved=1;startArrow=none;endArrow=block;exitX=0.5346715912644496;exitY=0;entryX=0.0003771551724137931;entryY=0.5;" parent="1" source="2" target="3" edge="1">
          <mxGeometry relative="1" as="geometry">
            <Array as="points">
              <mxPoint x="-327" y="263" />
            </Array>
          </mxGeometry>
        </mxCell>
        <mxCell id="18" value="" style="curved=1;startArrow=none;endArrow=block;exitX=0.682;exitY=1.09;entryX=0.002714982269503546;entryY=0.5;exitDx=0;exitDy=0;exitPerimeter=0;" parent="1" source="2" target="4" edge="1">
          <mxGeometry relative="1" as="geometry">
            <Array as="points">
              <mxPoint x="-370" y="700" />
            </Array>
          </mxGeometry>
        </mxCell>
        <mxCell id="20" value="" style="curved=1;startArrow=none;endArrow=block;exitX=0.5461627406472854;exitY=1;entryX=0.002458479020979021;entryY=0.5;" parent="1" source="2" target="6" edge="1">
          <mxGeometry relative="1" as="geometry">
            <Array as="points">
              <mxPoint x="-327" y="851" />
            </Array>
          </mxGeometry>
        </mxCell>
        <mxCell id="25" value="" style="curved=1;startArrow=none;endArrow=block;exitX=0.782611448834853;exitY=0;entryX=0.0002940188172043011;entryY=0.5;" parent="1" source="4" target="11" edge="1">
          <mxGeometry relative="1" as="geometry">
            <Array as="points">
              <mxPoint x="-72" y="777" />
            </Array>
          </mxGeometry>
        </mxCell>
        <mxCell id="26" value="" style="curved=1;startArrow=none;endArrow=block;exitX=0.782611448834853;exitY=1;entryX=-0.002045332618025751;entryY=0.5;" parent="1" source="4" target="12" edge="1">
          <mxGeometry relative="1" as="geometry">
            <Array as="points">
              <mxPoint x="-72" y="861" />
            </Array>
          </mxGeometry>
        </mxCell>
        <mxCell id="29" value="" style="curved=1;startArrow=none;endArrow=block;exitX=0.7786588411588411;exitY=0;entryX=-0.0023092196132596687;entryY=0.5;" parent="1" source="6" target="15" edge="1">
          <mxGeometry relative="1" as="geometry">
            <Array as="points">
              <mxPoint x="-82" y="939" />
            </Array>
          </mxGeometry>
        </mxCell>
        <mxCell id="30" value="" style="curved=1;startArrow=none;endArrow=block;exitX=0.7786588411588411;exitY=1;entryX=0.005322802197802198;entryY=0.5;" parent="1" source="6" target="16" edge="1">
          <mxGeometry relative="1" as="geometry">
            <Array as="points">
              <mxPoint x="-82" y="1023" />
            </Array>
          </mxGeometry>
        </mxCell>
        <mxCell id="8FiEF_ac_Us0IcNXSMMW-30" style="edgeStyle=orthogonalEdgeStyle;rounded=0;orthogonalLoop=1;jettySize=auto;html=1;exitX=1;exitY=0.25;exitDx=0;exitDy=0;entryX=1;entryY=0.5;entryDx=0;entryDy=0;" edge="1" parent="1" source="9" target="9">
          <mxGeometry relative="1" as="geometry" />
        </mxCell>
        <mxCell id="8FiEF_ac_Us0IcNXSMMW-35" value="Vision" style="whiteSpace=wrap;strokeWidth=2;" vertex="1" parent="1">
          <mxGeometry x="-14.549999999999997" y="262" width="66" height="34" as="geometry" />
        </mxCell>
        <mxCell id="8FiEF_ac_Us0IcNXSMMW-37" value="Custom Vision" style="whiteSpace=wrap;strokeWidth=2;" vertex="1" parent="1">
          <mxGeometry x="-51.55" y="321" width="140" height="34" as="geometry" />
        </mxCell>
        <mxCell id="8FiEF_ac_Us0IcNXSMMW-38" value="Face" style="whiteSpace=wrap;strokeWidth=2;" vertex="1" parent="1">
          <mxGeometry x="-25.049999999999997" y="380" width="87" height="34" as="geometry" />
        </mxCell>
        <mxCell id="8FiEF_ac_Us0IcNXSMMW-39" value="Content Safety" style="whiteSpace=wrap;strokeWidth=2;" vertex="1" parent="1">
          <mxGeometry x="-51.55" y="439" width="140" height="34" as="geometry" />
        </mxCell>
        <mxCell id="8FiEF_ac_Us0IcNXSMMW-40" value="Document Intelligence" style="whiteSpace=wrap;strokeWidth=2;" vertex="1" parent="1">
          <mxGeometry x="-51.55" y="498" width="140" height="34" as="geometry" />
        </mxCell>
        <mxCell id="8FiEF_ac_Us0IcNXSMMW-41" value="Azure Ai Search" style="whiteSpace=wrap;strokeWidth=2;" vertex="1" parent="1">
          <mxGeometry x="-51.55" y="-33" width="140" height="34" as="geometry" />
        </mxCell>
        <mxCell id="8FiEF_ac_Us0IcNXSMMW-42" value="Video Indexer" style="whiteSpace=wrap;strokeWidth=2;" vertex="1" parent="1">
          <mxGeometry x="-51.55" y="26" width="140" height="34" as="geometry" />
        </mxCell>
        <mxCell id="8FiEF_ac_Us0IcNXSMMW-43" value="Immersive Reader" style="whiteSpace=wrap;strokeWidth=2;" vertex="1" parent="1">
          <mxGeometry x="-51.55" y="85" width="140" height="34" as="geometry" />
        </mxCell>
        <mxCell id="8FiEF_ac_Us0IcNXSMMW-57" style="edgeStyle=orthogonalEdgeStyle;rounded=0;orthogonalLoop=1;jettySize=auto;html=1;entryX=0.069;entryY=0.471;entryDx=0;entryDy=0;entryPerimeter=0;curved=1;" edge="1" parent="1" source="3" target="10">
          <mxGeometry relative="1" as="geometry">
            <Array as="points">
              <mxPoint x="-100" y="141" />
              <mxPoint x="-100" y="160" />
            </Array>
          </mxGeometry>
        </mxCell>
        <mxCell id="8FiEF_ac_Us0IcNXSMMW-58" value="" style="shape=curlyBracket;whiteSpace=wrap;html=1;rounded=1;flipH=1;labelPosition=right;verticalLabelPosition=middle;align=left;verticalAlign=middle;" vertex="1" parent="1">
          <mxGeometry x="140" y="-229" width="90" height="780" as="geometry" />
        </mxCell>
        <mxCell id="8FiEF_ac_Us0IcNXSMMW-60" value="Azure AI Studio" style="rounded=0;whiteSpace=wrap;html=1;" vertex="1" parent="1">
          <mxGeometry x="230" y="131" width="120" height="60" as="geometry" />
        </mxCell>
      </root>
    </mxGraphModel>
  </diagram>
</mxfile>
